G04 #@! TF.GenerationSoftware,KiCad,Pcbnew,5.1.5+dfsg1-2build2*
G04 #@! TF.CreationDate,2022-05-17T22:25:56-07:00*
G04 #@! TF.ProjectId,v2.2-Dev-Kit,76322e32-2d44-4657-962d-4b69742e6b69,rev?*
G04 #@! TF.SameCoordinates,Original*
G04 #@! TF.FileFunction,Soldermask,Bot*
G04 #@! TF.FilePolarity,Negative*
%FSLAX46Y46*%
G04 Gerber Fmt 4.6, Leading zero omitted, Abs format (unit mm)*
G04 Created by KiCad (PCBNEW 5.1.5+dfsg1-2build2) date 2022-05-17 22:25:56*
%MOMM*%
%LPD*%
G04 APERTURE LIST*
%ADD10C,0.150000*%
G04 APERTURE END LIST*
D10*
G36*
X6881395Y-8991546D02*
G01*
X7054466Y-9063234D01*
X7054467Y-9063235D01*
X7210227Y-9167310D01*
X7342690Y-9299773D01*
X7342691Y-9299775D01*
X7446766Y-9455534D01*
X7518454Y-9628605D01*
X7555000Y-9812333D01*
X7555000Y-9999667D01*
X7518454Y-10183395D01*
X7446766Y-10356466D01*
X7446765Y-10356467D01*
X7342690Y-10512227D01*
X7210227Y-10644690D01*
X7131818Y-10697081D01*
X7054466Y-10748766D01*
X6881395Y-10820454D01*
X6697667Y-10857000D01*
X6510333Y-10857000D01*
X6326605Y-10820454D01*
X6153534Y-10748766D01*
X6076182Y-10697081D01*
X5997773Y-10644690D01*
X5865310Y-10512227D01*
X5761235Y-10356467D01*
X5761234Y-10356466D01*
X5689546Y-10183395D01*
X5653000Y-9999667D01*
X5653000Y-9812333D01*
X5689546Y-9628605D01*
X5761234Y-9455534D01*
X5865309Y-9299775D01*
X5865310Y-9299773D01*
X5997773Y-9167310D01*
X6153533Y-9063235D01*
X6153534Y-9063234D01*
X6326605Y-8991546D01*
X6510333Y-8955000D01*
X6697667Y-8955000D01*
X6881395Y-8991546D01*
G37*
G36*
X1801395Y-8991546D02*
G01*
X1974466Y-9063234D01*
X1974467Y-9063235D01*
X2130227Y-9167310D01*
X2262690Y-9299773D01*
X2262691Y-9299775D01*
X2366766Y-9455534D01*
X2438454Y-9628605D01*
X2475000Y-9812333D01*
X2475000Y-9999667D01*
X2438454Y-10183395D01*
X2366766Y-10356466D01*
X2366765Y-10356467D01*
X2262690Y-10512227D01*
X2130227Y-10644690D01*
X2051818Y-10697081D01*
X1974466Y-10748766D01*
X1801395Y-10820454D01*
X1617667Y-10857000D01*
X1430333Y-10857000D01*
X1246605Y-10820454D01*
X1073534Y-10748766D01*
X996182Y-10697081D01*
X917773Y-10644690D01*
X785310Y-10512227D01*
X681235Y-10356467D01*
X681234Y-10356466D01*
X609546Y-10183395D01*
X573000Y-9999667D01*
X573000Y-9812333D01*
X609546Y-9628605D01*
X681234Y-9455534D01*
X785309Y-9299775D01*
X785310Y-9299773D01*
X917773Y-9167310D01*
X1073533Y-9063235D01*
X1073534Y-9063234D01*
X1246605Y-8991546D01*
X1430333Y-8955000D01*
X1617667Y-8955000D01*
X1801395Y-8991546D01*
G37*
G36*
X-738605Y-8991546D02*
G01*
X-565534Y-9063234D01*
X-565533Y-9063235D01*
X-409773Y-9167310D01*
X-277310Y-9299773D01*
X-277309Y-9299775D01*
X-173234Y-9455534D01*
X-101546Y-9628605D01*
X-65000Y-9812333D01*
X-65000Y-9999667D01*
X-101546Y-10183395D01*
X-173234Y-10356466D01*
X-173235Y-10356467D01*
X-277310Y-10512227D01*
X-409773Y-10644690D01*
X-488182Y-10697081D01*
X-565534Y-10748766D01*
X-738605Y-10820454D01*
X-922333Y-10857000D01*
X-1109667Y-10857000D01*
X-1293395Y-10820454D01*
X-1466466Y-10748766D01*
X-1543818Y-10697081D01*
X-1622227Y-10644690D01*
X-1754690Y-10512227D01*
X-1858765Y-10356467D01*
X-1858766Y-10356466D01*
X-1930454Y-10183395D01*
X-1967000Y-9999667D01*
X-1967000Y-9812333D01*
X-1930454Y-9628605D01*
X-1858766Y-9455534D01*
X-1754691Y-9299775D01*
X-1754690Y-9299773D01*
X-1622227Y-9167310D01*
X-1466467Y-9063235D01*
X-1466466Y-9063234D01*
X-1293395Y-8991546D01*
X-1109667Y-8955000D01*
X-922333Y-8955000D01*
X-738605Y-8991546D01*
G37*
G36*
X-3278605Y-8991546D02*
G01*
X-3105534Y-9063234D01*
X-3105533Y-9063235D01*
X-2949773Y-9167310D01*
X-2817310Y-9299773D01*
X-2817309Y-9299775D01*
X-2713234Y-9455534D01*
X-2641546Y-9628605D01*
X-2605000Y-9812333D01*
X-2605000Y-9999667D01*
X-2641546Y-10183395D01*
X-2713234Y-10356466D01*
X-2713235Y-10356467D01*
X-2817310Y-10512227D01*
X-2949773Y-10644690D01*
X-3028182Y-10697081D01*
X-3105534Y-10748766D01*
X-3278605Y-10820454D01*
X-3462333Y-10857000D01*
X-3649667Y-10857000D01*
X-3833395Y-10820454D01*
X-4006466Y-10748766D01*
X-4083818Y-10697081D01*
X-4162227Y-10644690D01*
X-4294690Y-10512227D01*
X-4398765Y-10356467D01*
X-4398766Y-10356466D01*
X-4470454Y-10183395D01*
X-4507000Y-9999667D01*
X-4507000Y-9812333D01*
X-4470454Y-9628605D01*
X-4398766Y-9455534D01*
X-4294691Y-9299775D01*
X-4294690Y-9299773D01*
X-4162227Y-9167310D01*
X-4006467Y-9063235D01*
X-4006466Y-9063234D01*
X-3833395Y-8991546D01*
X-3649667Y-8955000D01*
X-3462333Y-8955000D01*
X-3278605Y-8991546D01*
G37*
G36*
X-5818605Y-8991546D02*
G01*
X-5645534Y-9063234D01*
X-5645533Y-9063235D01*
X-5489773Y-9167310D01*
X-5357310Y-9299773D01*
X-5357309Y-9299775D01*
X-5253234Y-9455534D01*
X-5181546Y-9628605D01*
X-5145000Y-9812333D01*
X-5145000Y-9999667D01*
X-5181546Y-10183395D01*
X-5253234Y-10356466D01*
X-5253235Y-10356467D01*
X-5357310Y-10512227D01*
X-5489773Y-10644690D01*
X-5568182Y-10697081D01*
X-5645534Y-10748766D01*
X-5818605Y-10820454D01*
X-6002333Y-10857000D01*
X-6189667Y-10857000D01*
X-6373395Y-10820454D01*
X-6546466Y-10748766D01*
X-6623818Y-10697081D01*
X-6702227Y-10644690D01*
X-6834690Y-10512227D01*
X-6938765Y-10356467D01*
X-6938766Y-10356466D01*
X-7010454Y-10183395D01*
X-7047000Y-9999667D01*
X-7047000Y-9812333D01*
X-7010454Y-9628605D01*
X-6938766Y-9455534D01*
X-6834691Y-9299775D01*
X-6834690Y-9299773D01*
X-6702227Y-9167310D01*
X-6546467Y-9063235D01*
X-6546466Y-9063234D01*
X-6373395Y-8991546D01*
X-6189667Y-8955000D01*
X-6002333Y-8955000D01*
X-5818605Y-8991546D01*
G37*
G36*
X-8358605Y-8991546D02*
G01*
X-8185534Y-9063234D01*
X-8185533Y-9063235D01*
X-8029773Y-9167310D01*
X-7897310Y-9299773D01*
X-7897309Y-9299775D01*
X-7793234Y-9455534D01*
X-7721546Y-9628605D01*
X-7685000Y-9812333D01*
X-7685000Y-9999667D01*
X-7721546Y-10183395D01*
X-7793234Y-10356466D01*
X-7793235Y-10356467D01*
X-7897310Y-10512227D01*
X-8029773Y-10644690D01*
X-8108182Y-10697081D01*
X-8185534Y-10748766D01*
X-8358605Y-10820454D01*
X-8542333Y-10857000D01*
X-8729667Y-10857000D01*
X-8913395Y-10820454D01*
X-9086466Y-10748766D01*
X-9163818Y-10697081D01*
X-9242227Y-10644690D01*
X-9374690Y-10512227D01*
X-9478765Y-10356467D01*
X-9478766Y-10356466D01*
X-9550454Y-10183395D01*
X-9587000Y-9999667D01*
X-9587000Y-9812333D01*
X-9550454Y-9628605D01*
X-9478766Y-9455534D01*
X-9374691Y-9299775D01*
X-9374690Y-9299773D01*
X-9242227Y-9167310D01*
X-9086467Y-9063235D01*
X-9086466Y-9063234D01*
X-8913395Y-8991546D01*
X-8729667Y-8955000D01*
X-8542333Y-8955000D01*
X-8358605Y-8991546D01*
G37*
G36*
X-10898605Y-8991546D02*
G01*
X-10725534Y-9063234D01*
X-10725533Y-9063235D01*
X-10569773Y-9167310D01*
X-10437310Y-9299773D01*
X-10437309Y-9299775D01*
X-10333234Y-9455534D01*
X-10261546Y-9628605D01*
X-10225000Y-9812333D01*
X-10225000Y-9999667D01*
X-10261546Y-10183395D01*
X-10333234Y-10356466D01*
X-10333235Y-10356467D01*
X-10437310Y-10512227D01*
X-10569773Y-10644690D01*
X-10648182Y-10697081D01*
X-10725534Y-10748766D01*
X-10898605Y-10820454D01*
X-11082333Y-10857000D01*
X-11269667Y-10857000D01*
X-11453395Y-10820454D01*
X-11626466Y-10748766D01*
X-11703818Y-10697081D01*
X-11782227Y-10644690D01*
X-11914690Y-10512227D01*
X-12018765Y-10356467D01*
X-12018766Y-10356466D01*
X-12090454Y-10183395D01*
X-12127000Y-9999667D01*
X-12127000Y-9812333D01*
X-12090454Y-9628605D01*
X-12018766Y-9455534D01*
X-11914691Y-9299775D01*
X-11914690Y-9299773D01*
X-11782227Y-9167310D01*
X-11626467Y-9063235D01*
X-11626466Y-9063234D01*
X-11453395Y-8991546D01*
X-11269667Y-8955000D01*
X-11082333Y-8955000D01*
X-10898605Y-8991546D01*
G37*
G36*
X4341395Y-8991546D02*
G01*
X4514466Y-9063234D01*
X4514467Y-9063235D01*
X4670227Y-9167310D01*
X4802690Y-9299773D01*
X4802691Y-9299775D01*
X4906766Y-9455534D01*
X4978454Y-9628605D01*
X5015000Y-9812333D01*
X5015000Y-9999667D01*
X4978454Y-10183395D01*
X4906766Y-10356466D01*
X4906765Y-10356467D01*
X4802690Y-10512227D01*
X4670227Y-10644690D01*
X4591818Y-10697081D01*
X4514466Y-10748766D01*
X4341395Y-10820454D01*
X4157667Y-10857000D01*
X3970333Y-10857000D01*
X3786605Y-10820454D01*
X3613534Y-10748766D01*
X3536182Y-10697081D01*
X3457773Y-10644690D01*
X3325310Y-10512227D01*
X3221235Y-10356467D01*
X3221234Y-10356466D01*
X3149546Y-10183395D01*
X3113000Y-9999667D01*
X3113000Y-9812333D01*
X3149546Y-9628605D01*
X3221234Y-9455534D01*
X3325309Y-9299775D01*
X3325310Y-9299773D01*
X3457773Y-9167310D01*
X3613533Y-9063235D01*
X3613534Y-9063234D01*
X3786605Y-8991546D01*
X3970333Y-8955000D01*
X4157667Y-8955000D01*
X4341395Y-8991546D01*
G37*
G36*
X19417512Y1150073D02*
G01*
X19566812Y1120376D01*
X19730784Y1052456D01*
X19878354Y953853D01*
X20003853Y828354D01*
X20102456Y680784D01*
X20170376Y516812D01*
X20205000Y342741D01*
X20205000Y165259D01*
X20170376Y-8812D01*
X20102456Y-172784D01*
X20003853Y-320354D01*
X19878354Y-445853D01*
X19730784Y-544456D01*
X19566812Y-612376D01*
X19417512Y-642073D01*
X19392742Y-647000D01*
X19215258Y-647000D01*
X19190488Y-642073D01*
X19041188Y-612376D01*
X18877216Y-544456D01*
X18729646Y-445853D01*
X18604147Y-320354D01*
X18505544Y-172784D01*
X18437624Y-8812D01*
X18403000Y165259D01*
X18403000Y342741D01*
X18437624Y516812D01*
X18505544Y680784D01*
X18604147Y828354D01*
X18729646Y953853D01*
X18877216Y1052456D01*
X19041188Y1120376D01*
X19190488Y1150073D01*
X19215258Y1155000D01*
X19392742Y1155000D01*
X19417512Y1150073D01*
G37*
G36*
X19417512Y3690073D02*
G01*
X19566812Y3660376D01*
X19730784Y3592456D01*
X19878354Y3493853D01*
X20003853Y3368354D01*
X20102456Y3220784D01*
X20170376Y3056812D01*
X20205000Y2882741D01*
X20205000Y2705259D01*
X20170376Y2531188D01*
X20102456Y2367216D01*
X20003853Y2219646D01*
X19878354Y2094147D01*
X19730784Y1995544D01*
X19566812Y1927624D01*
X19417512Y1897927D01*
X19392742Y1893000D01*
X19215258Y1893000D01*
X19190488Y1897927D01*
X19041188Y1927624D01*
X18877216Y1995544D01*
X18729646Y2094147D01*
X18604147Y2219646D01*
X18505544Y2367216D01*
X18437624Y2531188D01*
X18403000Y2705259D01*
X18403000Y2882741D01*
X18437624Y3056812D01*
X18505544Y3220784D01*
X18604147Y3368354D01*
X18729646Y3493853D01*
X18877216Y3592456D01*
X19041188Y3660376D01*
X19190488Y3690073D01*
X19215258Y3695000D01*
X19392742Y3695000D01*
X19417512Y3690073D01*
G37*
G36*
X19417512Y6230073D02*
G01*
X19566812Y6200376D01*
X19730784Y6132456D01*
X19878354Y6033853D01*
X20003853Y5908354D01*
X20102456Y5760784D01*
X20170376Y5596812D01*
X20205000Y5422741D01*
X20205000Y5245259D01*
X20170376Y5071188D01*
X20102456Y4907216D01*
X20003853Y4759646D01*
X19878354Y4634147D01*
X19730784Y4535544D01*
X19566812Y4467624D01*
X19417512Y4437927D01*
X19392742Y4433000D01*
X19215258Y4433000D01*
X19190488Y4437927D01*
X19041188Y4467624D01*
X18877216Y4535544D01*
X18729646Y4634147D01*
X18604147Y4759646D01*
X18505544Y4907216D01*
X18437624Y5071188D01*
X18403000Y5245259D01*
X18403000Y5422741D01*
X18437624Y5596812D01*
X18505544Y5760784D01*
X18604147Y5908354D01*
X18729646Y6033853D01*
X18877216Y6132456D01*
X19041188Y6200376D01*
X19190488Y6230073D01*
X19215258Y6235000D01*
X19392742Y6235000D01*
X19417512Y6230073D01*
G37*
G36*
X19417512Y8770073D02*
G01*
X19566812Y8740376D01*
X19730784Y8672456D01*
X19878354Y8573853D01*
X20003853Y8448354D01*
X20102456Y8300784D01*
X20170376Y8136812D01*
X20205000Y7962741D01*
X20205000Y7785259D01*
X20170376Y7611188D01*
X20102456Y7447216D01*
X20003853Y7299646D01*
X19878354Y7174147D01*
X19730784Y7075544D01*
X19566812Y7007624D01*
X19417512Y6977927D01*
X19392742Y6973000D01*
X19215258Y6973000D01*
X19190488Y6977927D01*
X19041188Y7007624D01*
X18877216Y7075544D01*
X18729646Y7174147D01*
X18604147Y7299646D01*
X18505544Y7447216D01*
X18437624Y7611188D01*
X18403000Y7785259D01*
X18403000Y7962741D01*
X18437624Y8136812D01*
X18505544Y8300784D01*
X18604147Y8448354D01*
X18729646Y8573853D01*
X18877216Y8672456D01*
X19041188Y8740376D01*
X19190488Y8770073D01*
X19215258Y8775000D01*
X19392742Y8775000D01*
X19417512Y8770073D01*
G37*
G36*
X19417512Y11310073D02*
G01*
X19566812Y11280376D01*
X19730784Y11212456D01*
X19878354Y11113853D01*
X20003853Y10988354D01*
X20102456Y10840784D01*
X20170376Y10676812D01*
X20205000Y10502741D01*
X20205000Y10325259D01*
X20170376Y10151188D01*
X20102456Y9987216D01*
X20003853Y9839646D01*
X19878354Y9714147D01*
X19730784Y9615544D01*
X19566812Y9547624D01*
X19417512Y9517927D01*
X19392742Y9513000D01*
X19215258Y9513000D01*
X19190488Y9517927D01*
X19041188Y9547624D01*
X18877216Y9615544D01*
X18729646Y9714147D01*
X18604147Y9839646D01*
X18505544Y9987216D01*
X18437624Y10151188D01*
X18403000Y10325259D01*
X18403000Y10502741D01*
X18437624Y10676812D01*
X18505544Y10840784D01*
X18604147Y10988354D01*
X18729646Y11113853D01*
X18877216Y11212456D01*
X19041188Y11280376D01*
X19190488Y11310073D01*
X19215258Y11315000D01*
X19392742Y11315000D01*
X19417512Y11310073D01*
G37*
G36*
X4341395Y13868454D02*
G01*
X4514466Y13796766D01*
X4514467Y13796765D01*
X4670227Y13692690D01*
X4802690Y13560227D01*
X4802691Y13560225D01*
X4906766Y13404466D01*
X4978454Y13231395D01*
X5015000Y13047667D01*
X5015000Y12860333D01*
X4978454Y12676605D01*
X4906766Y12503534D01*
X4906765Y12503533D01*
X4802690Y12347773D01*
X4670227Y12215310D01*
X4591818Y12162919D01*
X4514466Y12111234D01*
X4341395Y12039546D01*
X4157667Y12003000D01*
X3970333Y12003000D01*
X3786605Y12039546D01*
X3613534Y12111234D01*
X3536182Y12162919D01*
X3457773Y12215310D01*
X3325310Y12347773D01*
X3221235Y12503533D01*
X3221234Y12503534D01*
X3149546Y12676605D01*
X3113000Y12860333D01*
X3113000Y13047667D01*
X3149546Y13231395D01*
X3221234Y13404466D01*
X3325309Y13560225D01*
X3325310Y13560227D01*
X3457773Y13692690D01*
X3613533Y13796765D01*
X3613534Y13796766D01*
X3786605Y13868454D01*
X3970333Y13905000D01*
X4157667Y13905000D01*
X4341395Y13868454D01*
G37*
G36*
X-10898605Y13868454D02*
G01*
X-10725534Y13796766D01*
X-10725533Y13796765D01*
X-10569773Y13692690D01*
X-10437310Y13560227D01*
X-10437309Y13560225D01*
X-10333234Y13404466D01*
X-10261546Y13231395D01*
X-10225000Y13047667D01*
X-10225000Y12860333D01*
X-10261546Y12676605D01*
X-10333234Y12503534D01*
X-10333235Y12503533D01*
X-10437310Y12347773D01*
X-10569773Y12215310D01*
X-10648182Y12162919D01*
X-10725534Y12111234D01*
X-10898605Y12039546D01*
X-11082333Y12003000D01*
X-11269667Y12003000D01*
X-11453395Y12039546D01*
X-11626466Y12111234D01*
X-11703818Y12162919D01*
X-11782227Y12215310D01*
X-11914690Y12347773D01*
X-12018765Y12503533D01*
X-12018766Y12503534D01*
X-12090454Y12676605D01*
X-12127000Y12860333D01*
X-12127000Y13047667D01*
X-12090454Y13231395D01*
X-12018766Y13404466D01*
X-11914691Y13560225D01*
X-11914690Y13560227D01*
X-11782227Y13692690D01*
X-11626467Y13796765D01*
X-11626466Y13796766D01*
X-11453395Y13868454D01*
X-11269667Y13905000D01*
X-11082333Y13905000D01*
X-10898605Y13868454D01*
G37*
G36*
X-738605Y13868454D02*
G01*
X-565534Y13796766D01*
X-565533Y13796765D01*
X-409773Y13692690D01*
X-277310Y13560227D01*
X-277309Y13560225D01*
X-173234Y13404466D01*
X-101546Y13231395D01*
X-65000Y13047667D01*
X-65000Y12860333D01*
X-101546Y12676605D01*
X-173234Y12503534D01*
X-173235Y12503533D01*
X-277310Y12347773D01*
X-409773Y12215310D01*
X-488182Y12162919D01*
X-565534Y12111234D01*
X-738605Y12039546D01*
X-922333Y12003000D01*
X-1109667Y12003000D01*
X-1293395Y12039546D01*
X-1466466Y12111234D01*
X-1543818Y12162919D01*
X-1622227Y12215310D01*
X-1754690Y12347773D01*
X-1858765Y12503533D01*
X-1858766Y12503534D01*
X-1930454Y12676605D01*
X-1967000Y12860333D01*
X-1967000Y13047667D01*
X-1930454Y13231395D01*
X-1858766Y13404466D01*
X-1754691Y13560225D01*
X-1754690Y13560227D01*
X-1622227Y13692690D01*
X-1466467Y13796765D01*
X-1466466Y13796766D01*
X-1293395Y13868454D01*
X-1109667Y13905000D01*
X-922333Y13905000D01*
X-738605Y13868454D01*
G37*
G36*
X-8358605Y13868454D02*
G01*
X-8185534Y13796766D01*
X-8185533Y13796765D01*
X-8029773Y13692690D01*
X-7897310Y13560227D01*
X-7897309Y13560225D01*
X-7793234Y13404466D01*
X-7721546Y13231395D01*
X-7685000Y13047667D01*
X-7685000Y12860333D01*
X-7721546Y12676605D01*
X-7793234Y12503534D01*
X-7793235Y12503533D01*
X-7897310Y12347773D01*
X-8029773Y12215310D01*
X-8108182Y12162919D01*
X-8185534Y12111234D01*
X-8358605Y12039546D01*
X-8542333Y12003000D01*
X-8729667Y12003000D01*
X-8913395Y12039546D01*
X-9086466Y12111234D01*
X-9163818Y12162919D01*
X-9242227Y12215310D01*
X-9374690Y12347773D01*
X-9478765Y12503533D01*
X-9478766Y12503534D01*
X-9550454Y12676605D01*
X-9587000Y12860333D01*
X-9587000Y13047667D01*
X-9550454Y13231395D01*
X-9478766Y13404466D01*
X-9374691Y13560225D01*
X-9374690Y13560227D01*
X-9242227Y13692690D01*
X-9086467Y13796765D01*
X-9086466Y13796766D01*
X-8913395Y13868454D01*
X-8729667Y13905000D01*
X-8542333Y13905000D01*
X-8358605Y13868454D01*
G37*
G36*
X-5818605Y13868454D02*
G01*
X-5645534Y13796766D01*
X-5645533Y13796765D01*
X-5489773Y13692690D01*
X-5357310Y13560227D01*
X-5357309Y13560225D01*
X-5253234Y13404466D01*
X-5181546Y13231395D01*
X-5145000Y13047667D01*
X-5145000Y12860333D01*
X-5181546Y12676605D01*
X-5253234Y12503534D01*
X-5253235Y12503533D01*
X-5357310Y12347773D01*
X-5489773Y12215310D01*
X-5568182Y12162919D01*
X-5645534Y12111234D01*
X-5818605Y12039546D01*
X-6002333Y12003000D01*
X-6189667Y12003000D01*
X-6373395Y12039546D01*
X-6546466Y12111234D01*
X-6623818Y12162919D01*
X-6702227Y12215310D01*
X-6834690Y12347773D01*
X-6938765Y12503533D01*
X-6938766Y12503534D01*
X-7010454Y12676605D01*
X-7047000Y12860333D01*
X-7047000Y13047667D01*
X-7010454Y13231395D01*
X-6938766Y13404466D01*
X-6834691Y13560225D01*
X-6834690Y13560227D01*
X-6702227Y13692690D01*
X-6546467Y13796765D01*
X-6546466Y13796766D01*
X-6373395Y13868454D01*
X-6189667Y13905000D01*
X-6002333Y13905000D01*
X-5818605Y13868454D01*
G37*
G36*
X-3278605Y13868454D02*
G01*
X-3105534Y13796766D01*
X-3105533Y13796765D01*
X-2949773Y13692690D01*
X-2817310Y13560227D01*
X-2817309Y13560225D01*
X-2713234Y13404466D01*
X-2641546Y13231395D01*
X-2605000Y13047667D01*
X-2605000Y12860333D01*
X-2641546Y12676605D01*
X-2713234Y12503534D01*
X-2713235Y12503533D01*
X-2817310Y12347773D01*
X-2949773Y12215310D01*
X-3028182Y12162919D01*
X-3105534Y12111234D01*
X-3278605Y12039546D01*
X-3462333Y12003000D01*
X-3649667Y12003000D01*
X-3833395Y12039546D01*
X-4006466Y12111234D01*
X-4083818Y12162919D01*
X-4162227Y12215310D01*
X-4294690Y12347773D01*
X-4398765Y12503533D01*
X-4398766Y12503534D01*
X-4470454Y12676605D01*
X-4507000Y12860333D01*
X-4507000Y13047667D01*
X-4470454Y13231395D01*
X-4398766Y13404466D01*
X-4294691Y13560225D01*
X-4294690Y13560227D01*
X-4162227Y13692690D01*
X-4006467Y13796765D01*
X-4006466Y13796766D01*
X-3833395Y13868454D01*
X-3649667Y13905000D01*
X-3462333Y13905000D01*
X-3278605Y13868454D01*
G37*
G36*
X1801395Y13868454D02*
G01*
X1974466Y13796766D01*
X1974467Y13796765D01*
X2130227Y13692690D01*
X2262690Y13560227D01*
X2262691Y13560225D01*
X2366766Y13404466D01*
X2438454Y13231395D01*
X2475000Y13047667D01*
X2475000Y12860333D01*
X2438454Y12676605D01*
X2366766Y12503534D01*
X2366765Y12503533D01*
X2262690Y12347773D01*
X2130227Y12215310D01*
X2051818Y12162919D01*
X1974466Y12111234D01*
X1801395Y12039546D01*
X1617667Y12003000D01*
X1430333Y12003000D01*
X1246605Y12039546D01*
X1073534Y12111234D01*
X996182Y12162919D01*
X917773Y12215310D01*
X785310Y12347773D01*
X681235Y12503533D01*
X681234Y12503534D01*
X609546Y12676605D01*
X573000Y12860333D01*
X573000Y13047667D01*
X609546Y13231395D01*
X681234Y13404466D01*
X785309Y13560225D01*
X785310Y13560227D01*
X917773Y13692690D01*
X1073533Y13796765D01*
X1073534Y13796766D01*
X1246605Y13868454D01*
X1430333Y13905000D01*
X1617667Y13905000D01*
X1801395Y13868454D01*
G37*
G36*
X6881395Y13868454D02*
G01*
X7054466Y13796766D01*
X7054467Y13796765D01*
X7210227Y13692690D01*
X7342690Y13560227D01*
X7342691Y13560225D01*
X7446766Y13404466D01*
X7518454Y13231395D01*
X7555000Y13047667D01*
X7555000Y12860333D01*
X7518454Y12676605D01*
X7446766Y12503534D01*
X7446765Y12503533D01*
X7342690Y12347773D01*
X7210227Y12215310D01*
X7131818Y12162919D01*
X7054466Y12111234D01*
X6881395Y12039546D01*
X6697667Y12003000D01*
X6510333Y12003000D01*
X6326605Y12039546D01*
X6153534Y12111234D01*
X6076182Y12162919D01*
X5997773Y12215310D01*
X5865310Y12347773D01*
X5761235Y12503533D01*
X5761234Y12503534D01*
X5689546Y12676605D01*
X5653000Y12860333D01*
X5653000Y13047667D01*
X5689546Y13231395D01*
X5761234Y13404466D01*
X5865309Y13560225D01*
X5865310Y13560227D01*
X5997773Y13692690D01*
X6153533Y13796765D01*
X6153534Y13796766D01*
X6326605Y13868454D01*
X6510333Y13905000D01*
X6697667Y13905000D01*
X6881395Y13868454D01*
G37*
G36*
X19417512Y13850073D02*
G01*
X19566812Y13820376D01*
X19730784Y13752456D01*
X19878354Y13653853D01*
X20003853Y13528354D01*
X20102456Y13380784D01*
X20170376Y13216812D01*
X20205000Y13042741D01*
X20205000Y12865259D01*
X20170376Y12691188D01*
X20102456Y12527216D01*
X20003853Y12379646D01*
X19878354Y12254147D01*
X19730784Y12155544D01*
X19566812Y12087624D01*
X19417512Y12057927D01*
X19392742Y12053000D01*
X19215258Y12053000D01*
X19190488Y12057927D01*
X19041188Y12087624D01*
X18877216Y12155544D01*
X18729646Y12254147D01*
X18604147Y12379646D01*
X18505544Y12527216D01*
X18437624Y12691188D01*
X18403000Y12865259D01*
X18403000Y13042741D01*
X18437624Y13216812D01*
X18505544Y13380784D01*
X18604147Y13528354D01*
X18729646Y13653853D01*
X18877216Y13752456D01*
X19041188Y13820376D01*
X19190488Y13850073D01*
X19215258Y13855000D01*
X19392742Y13855000D01*
X19417512Y13850073D01*
G37*
G36*
X19417512Y16390073D02*
G01*
X19566812Y16360376D01*
X19730784Y16292456D01*
X19878354Y16193853D01*
X20003853Y16068354D01*
X20102456Y15920784D01*
X20170376Y15756812D01*
X20205000Y15582741D01*
X20205000Y15405259D01*
X20170376Y15231188D01*
X20102456Y15067216D01*
X20003853Y14919646D01*
X19878354Y14794147D01*
X19730784Y14695544D01*
X19566812Y14627624D01*
X19417512Y14597927D01*
X19392742Y14593000D01*
X19215258Y14593000D01*
X19190488Y14597927D01*
X19041188Y14627624D01*
X18877216Y14695544D01*
X18729646Y14794147D01*
X18604147Y14919646D01*
X18505544Y15067216D01*
X18437624Y15231188D01*
X18403000Y15405259D01*
X18403000Y15582741D01*
X18437624Y15756812D01*
X18505544Y15920784D01*
X18604147Y16068354D01*
X18729646Y16193853D01*
X18877216Y16292456D01*
X19041188Y16360376D01*
X19190488Y16390073D01*
X19215258Y16395000D01*
X19392742Y16395000D01*
X19417512Y16390073D01*
G37*
G36*
X4087395Y18204454D02*
G01*
X4260466Y18132766D01*
X4260467Y18132765D01*
X4416227Y18028690D01*
X4548690Y17896227D01*
X4548691Y17896225D01*
X4652766Y17740466D01*
X4724454Y17567395D01*
X4761000Y17383667D01*
X4761000Y17196333D01*
X4724454Y17012605D01*
X4652766Y16839534D01*
X4652765Y16839533D01*
X4548690Y16683773D01*
X4416227Y16551310D01*
X4337818Y16498919D01*
X4260466Y16447234D01*
X4087395Y16375546D01*
X3903667Y16339000D01*
X3716333Y16339000D01*
X3532605Y16375546D01*
X3359534Y16447234D01*
X3282182Y16498919D01*
X3203773Y16551310D01*
X3071310Y16683773D01*
X2967235Y16839533D01*
X2967234Y16839534D01*
X2895546Y17012605D01*
X2859000Y17196333D01*
X2859000Y17383667D01*
X2895546Y17567395D01*
X2967234Y17740466D01*
X3071309Y17896225D01*
X3071310Y17896227D01*
X3203773Y18028690D01*
X3359533Y18132765D01*
X3359534Y18132766D01*
X3532605Y18204454D01*
X3716333Y18241000D01*
X3903667Y18241000D01*
X4087395Y18204454D01*
G37*
G36*
X1547395Y18204454D02*
G01*
X1720466Y18132766D01*
X1720467Y18132765D01*
X1876227Y18028690D01*
X2008690Y17896227D01*
X2008691Y17896225D01*
X2112766Y17740466D01*
X2184454Y17567395D01*
X2221000Y17383667D01*
X2221000Y17196333D01*
X2184454Y17012605D01*
X2112766Y16839534D01*
X2112765Y16839533D01*
X2008690Y16683773D01*
X1876227Y16551310D01*
X1797818Y16498919D01*
X1720466Y16447234D01*
X1547395Y16375546D01*
X1363667Y16339000D01*
X1176333Y16339000D01*
X992605Y16375546D01*
X819534Y16447234D01*
X742182Y16498919D01*
X663773Y16551310D01*
X531310Y16683773D01*
X427235Y16839533D01*
X427234Y16839534D01*
X355546Y17012605D01*
X319000Y17196333D01*
X319000Y17383667D01*
X355546Y17567395D01*
X427234Y17740466D01*
X531309Y17896225D01*
X531310Y17896227D01*
X663773Y18028690D01*
X819533Y18132765D01*
X819534Y18132766D01*
X992605Y18204454D01*
X1176333Y18241000D01*
X1363667Y18241000D01*
X1547395Y18204454D01*
G37*
G36*
X-3532605Y18204454D02*
G01*
X-3359534Y18132766D01*
X-3359533Y18132765D01*
X-3203773Y18028690D01*
X-3071310Y17896227D01*
X-3071309Y17896225D01*
X-2967234Y17740466D01*
X-2895546Y17567395D01*
X-2859000Y17383667D01*
X-2859000Y17196333D01*
X-2895546Y17012605D01*
X-2967234Y16839534D01*
X-2967235Y16839533D01*
X-3071310Y16683773D01*
X-3203773Y16551310D01*
X-3282182Y16498919D01*
X-3359534Y16447234D01*
X-3532605Y16375546D01*
X-3716333Y16339000D01*
X-3903667Y16339000D01*
X-4087395Y16375546D01*
X-4260466Y16447234D01*
X-4337818Y16498919D01*
X-4416227Y16551310D01*
X-4548690Y16683773D01*
X-4652765Y16839533D01*
X-4652766Y16839534D01*
X-4724454Y17012605D01*
X-4761000Y17196333D01*
X-4761000Y17383667D01*
X-4724454Y17567395D01*
X-4652766Y17740466D01*
X-4548691Y17896225D01*
X-4548690Y17896227D01*
X-4416227Y18028690D01*
X-4260467Y18132765D01*
X-4260466Y18132766D01*
X-4087395Y18204454D01*
X-3903667Y18241000D01*
X-3716333Y18241000D01*
X-3532605Y18204454D01*
G37*
G36*
X-992605Y18204454D02*
G01*
X-819534Y18132766D01*
X-819533Y18132765D01*
X-663773Y18028690D01*
X-531310Y17896227D01*
X-531309Y17896225D01*
X-427234Y17740466D01*
X-355546Y17567395D01*
X-319000Y17383667D01*
X-319000Y17196333D01*
X-355546Y17012605D01*
X-427234Y16839534D01*
X-427235Y16839533D01*
X-531310Y16683773D01*
X-663773Y16551310D01*
X-742182Y16498919D01*
X-819534Y16447234D01*
X-992605Y16375546D01*
X-1176333Y16339000D01*
X-1363667Y16339000D01*
X-1547395Y16375546D01*
X-1720466Y16447234D01*
X-1797818Y16498919D01*
X-1876227Y16551310D01*
X-2008690Y16683773D01*
X-2112765Y16839533D01*
X-2112766Y16839534D01*
X-2184454Y17012605D01*
X-2221000Y17196333D01*
X-2221000Y17383667D01*
X-2184454Y17567395D01*
X-2112766Y17740466D01*
X-2008691Y17896225D01*
X-2008690Y17896227D01*
X-1876227Y18028690D01*
X-1720467Y18132765D01*
X-1720466Y18132766D01*
X-1547395Y18204454D01*
X-1363667Y18241000D01*
X-1176333Y18241000D01*
X-992605Y18204454D01*
G37*
G36*
X20205000Y17133000D02*
G01*
X18403000Y17133000D01*
X18403000Y18935000D01*
X20205000Y18935000D01*
X20205000Y17133000D01*
G37*
G36*
X14494098Y26452967D02*
G01*
X14958350Y26260668D01*
X14958352Y26260667D01*
X15376168Y25981491D01*
X15731491Y25626168D01*
X16010667Y25208352D01*
X16010668Y25208350D01*
X16202967Y24744098D01*
X16301000Y24251253D01*
X16301000Y23748747D01*
X16202967Y23255902D01*
X16010668Y22791650D01*
X16010667Y22791648D01*
X15731491Y22373832D01*
X15376168Y22018509D01*
X14958352Y21739333D01*
X14958351Y21739332D01*
X14958350Y21739332D01*
X14494098Y21547033D01*
X14001253Y21449000D01*
X13498747Y21449000D01*
X13005902Y21547033D01*
X12541650Y21739332D01*
X12541649Y21739332D01*
X12541648Y21739333D01*
X12123832Y22018509D01*
X11768509Y22373832D01*
X11489333Y22791648D01*
X11489332Y22791650D01*
X11297033Y23255902D01*
X11199000Y23748747D01*
X11199000Y24251253D01*
X11297033Y24744098D01*
X11489332Y25208350D01*
X11489333Y25208352D01*
X11768509Y25626168D01*
X12123832Y25981491D01*
X12541648Y26260667D01*
X12541650Y26260668D01*
X13005902Y26452967D01*
X13498747Y26551000D01*
X14001253Y26551000D01*
X14494098Y26452967D01*
G37*
G36*
X-13005902Y26452967D02*
G01*
X-12541650Y26260668D01*
X-12541648Y26260667D01*
X-12123832Y25981491D01*
X-11768509Y25626168D01*
X-11489333Y25208352D01*
X-11489332Y25208350D01*
X-11297033Y24744098D01*
X-11199000Y24251253D01*
X-11199000Y23748747D01*
X-11297033Y23255902D01*
X-11489332Y22791650D01*
X-11489333Y22791648D01*
X-11768509Y22373832D01*
X-12123832Y22018509D01*
X-12541648Y21739333D01*
X-12541649Y21739332D01*
X-12541650Y21739332D01*
X-13005902Y21547033D01*
X-13498747Y21449000D01*
X-14001253Y21449000D01*
X-14494098Y21547033D01*
X-14958350Y21739332D01*
X-14958351Y21739332D01*
X-14958352Y21739333D01*
X-15376168Y22018509D01*
X-15731491Y22373832D01*
X-16010667Y22791648D01*
X-16010668Y22791650D01*
X-16202967Y23255902D01*
X-16301000Y23748747D01*
X-16301000Y24251253D01*
X-16202967Y24744098D01*
X-16010668Y25208350D01*
X-16010667Y25208352D01*
X-15731491Y25626168D01*
X-15376168Y25981491D01*
X-14958352Y26260667D01*
X-14958350Y26260668D01*
X-14494098Y26452967D01*
X-14001253Y26551000D01*
X-13498747Y26551000D01*
X-13005902Y26452967D01*
G37*
M02*
